PathFileType	4	(X/Y/Z)	T1_P1_Vision_NoMovement_2_0-682.trc
DataRate	CameraRate	NumFrames	NumMarkers	Units	OrigDataRate	OrigDataStartFrame	OrigNumFrames
60	60	5	27	m	60	255	682
Frame#	Time	RHip			RKnee			RAnkle			RBigToe			RSmallToe			RHeel			LHip			LKnee			LAnkle			LBigToe			LSmallToe			LHeel			Neck			Head			Nose			RShoulder			RElbow			RWrist			RThumb			RIndex			RPinky			LShoulder			LElbow			LWrist			LThumb			LIndex			LPinky		
		X1	Y1	Z1	X2	Y2	Z2	X3	Y3	Z3	X4	Y4	Z4	X5	Y5	Z5	X6	Y6	Z6	X7	Y7	Z7	X8	Y8	Z8	X9	Y9	Z9	X10	Y10	Z10	X11	Y11	Z11	X12	Y12	Z12	X13	Y13	Z13	X14	Y14	Z14	X15	Y15	Z15	X16	Y16	Z16	X17	Y17	Z17	X18	Y18	Z18	X19	Y19	Z19	X20	Y20	Z20	X21	Y21	Z21	X22	Y22	Z22	X23	Y23	Z23	X24	Y24	Z24	X25	Y25	Z25	X26	Y26	Z26	X27	Y27	Z27
256	4.266666666666667	-63.717985087722	3762.131914517047	-545.5487587203472	291.87134516543335	3938.8563261625713	-522.1804041977161	640.2283443511942	4146.25816344967	-530.1954769897548	694.745172737866	4023.5590601663675	-463.44563707151747	689.2893928839571	3967.812673493566	-497.7869198726007	677.6011726523549	4173.735355993958	-527.4718241544235	-102.69046204679346	3884.269721516502	-343.30896105743494	238.80185092313337	3969.229712801028	-362.15189952349203	621.1069919172273	4240.724598988526	-445.3877162255947	665.1156553625334	3994.941144033536	-349.13091642312173	672.5255862660215	4128.642897923903	-345.7098951935829	669.1078216005598	4305.5634299039775	-485.6984445536641	-664.5480446817203	3684.3444687450965	-515.829839183351	-911.9209849897111	3541.176951675978	-438.08244707558936	-776.0854331582472	3569.9382857220517	-416.1366156907401	-561.8780416778035	3687.0686243635323	-680.743410498697	-284.3846651293616	3639.2440336120385	-680.4622992009711	-24.990162146843822	3627.4289416423335	-616.9085418296986	86.30500310139757	3742.3020607922444	-562.4194282253133	111.9374042757878	3693.175321366249	-556.2631309306785	101.54336216494465	3627.607127705731	-578.952766407512	-609.9974955891513	3756.788958393082	-358.0266454442059	-392.3103973710766	3980.340788454052	-341.48314783665154	-134.2718829938958	3940.0686755373317	-224.63969355688414	-3.625278635904205	3828.9761020985643	-222.28667379467703	17.42178530699575	3900.6943244450586	-205.35880284879318	-2.1068554325232194	3974.1690513019894	-207.6314661945673
257	4.283333333333333	-64.48737557969176	3761.7715177701384	-545.4746413726589	290.4569471352912	3936.732506764218	-523.0640824896016	641.2735784764018	4153.511419169148	-531.8352711097272	695.8165787616608	4021.8132782893786	-462.46427742653543	690.730039118901	3968.156036475217	-499.86602976925155	678.7321164342179	4179.266921931845	-528.6386776210978	-102.68137392755293	3884.3177956920517	-343.62476547703307	238.4579625898951	3969.173321280259	-362.12596390106916	620.8174180078618	4239.6502702041935	-443.4417256889045	666.2064419091033	3994.5624594329806	-350.2689518826199	673.8615580106313	4123.9741896325395	-344.86168571627655	668.228021796078	4301.188994641444	-481.45228634406266	-665.774185487533	3685.737698849259	-516.8747539695233	-911.8787230925113	3541.1921787729693	-438.1031913589574	-776.1840173178717	3569.9552803188117	-416.1639932632349	-561.8751558339721	3687.0803096695226	-680.7545806537744	-283.14935792694064	3640.132627649024	-680.6404791191927	-24.89503946795263	3628.709311956298	-617.9449795338423	86.5307723758168	3742.4076533027032	-562.4294335187266	112.07240464929927	3693.5042826597764	-556.3043927490011	100.93957776721302	3627.4067074029645	-578.9094154773039	-609.9859907106198	3756.7795929366607	-358.05142322002814	-392.15774532444806	3981.046506416753	-343.86727135257945	-134.25084223152578	3940.123672887678	-224.66943100839077	-3.0889752483443442	3829.2528089268462	-222.23426111397362	20.281490426525046	3902.3577051708617	-205.83771497975349	-2.0354547299918524	3970.9405514797813	-207.13414986940427
258	4.3	-64.99105079263272	3761.5261527135262	-545.4223710100761	289.51197310037736	3934.6598778389834	-523.7180452063994	641.6378834233499	4152.37834824924	-531.4669783782986	696.1043898194574	4023.4427988734715	-461.05917663846964	690.7809874412924	3964.8616679109	-499.90973651896036	678.9686056854599	4180.785111902048	-528.9908381335883	-102.63231486019914	3884.4368161223497	-344.35439709211647	238.98216700442396	3969.6250301561013	-362.3921982782931	621.964247222625	4244.593632959399	-446.8318264027624	666.8214129030315	3994.645307106682	-350.80158417700375	674.3273722796002	4122.3455079524765	-344.58371961460705	667.2104327710422	4298.188303161227	-479.79377947211185	-665.6642918525961	3686.1180587607337	-516.5716118168029	-911.8488639672472	3541.1868668779166	-438.104886333437	-776.0828563460834	3570.045773271857	-416.2031975337123	-561.8862141478547	3687.1436042512505	-680.789049853299	-282.15754140725005	3642.6774530823704	-681.3121894989996	-24.754061985900357	3632.0133823100255	-620.226346226379	86.58381384057796	3742.42202949672	-562.4822409277175	112.1217402023791	3693.1556575040518	-556.2148695273113	99.4739485433148	3626.9404003816935	-579.1745777426646	-609.9743019330125	3756.784070977475	-358.0371183218472	-392.0281662326947	3981.5914844941135	-345.7044223738358	-134.22375793796587	3940.1523696678814	-224.69638497786835	-2.4234739096326665	3829.5046655839287	-221.79311683119153	21.653323610381833	3902.2996952796925	-205.88224006396024	-1.9978831171139435	3970.638219812847	-207.1315980039663
259	4.316666666666666	-65.11725142244694	3761.5355358700613	-545.4486814182317	289.85543798675695	3936.499550447804	-524.605340344113	641.5639572085795	4144.506862432079	-529.5887219134218	696.2454375737316	4026.7774405298974	-460.3763403604275	689.0962102481673	3959.2874640511327	-497.8815357881397	678.5221112239108	4178.384292975155	-528.5621352901763	-102.56864194142231	3884.6364143177557	-345.33953329800914	239.98110959410806	3972.0950440953093	-364.0224773696716	624.1345892622631	4251.205672880666	-452.1700332431906	666.3617024947927	3994.1427518371383	-350.74266493788036	674.9310821465059	4125.2336323263435	-345.35549861342275	667.6116337391761	4300.085632097587	-482.1886276936745	-664.5021547787019	3686.031625673206	-515.2569191592306	-911.8320318996444	3541.1649635506483	-438.09396990707273	-775.9970647705748	3570.1210025115624	-416.20729116292705	-561.9008937406476	3687.2262915329325	-680.8275332265312	-282.49113159510375	3647.1154719071183	-682.607856303223	-24.68525131073946	3636.002389565926	-622.253276812612	86.58879709336648	3742.433369243107	-562.5399066147148	112.0770920978118	3692.799117181441	-556.1515769247678	97.99339253310818	3626.5286498011246	-579.4949882905067	-609.9548475188355	3756.8008385057124	-357.9422846744647	-391.9820625188428	3981.870544165075	-346.4826421868543	-134.2026708014337	3940.114803474181	-224.71282453525305	-2.2289067630578003	3829.242158824803	-220.78740327219887	20.317651066783935	3898.051666190317	-205.03514694474438	-2.0103672465058877	3971.070055970823	-207.2240528160499
260	4.333333333333333	-65.0714605325079	3761.683046756833	-545.5144245810964	290.6264650494874	3942.1607034544677	-525.9077842658153	641.8783367509674	4137.106617770091	-527.7848933500873	696.1984355998782	4028.3031916800996	-460.24592653248203	687.2589961036228	3955.882674729809	-495.7298556944402	678.1996864776897	4176.142539605933	-528.1493270769528	-102.55665463590047	3884.7796520102584	-345.812350252765	240.5224887416263	3975.6478860764682	-366.4540783282211	626.0409628004729	4255.303696694001	-455.54304096682375	665.1174285098385	3991.6213381923512	-349.90828580735126	675.737822496146	4130.397523357594	-346.67101675046285	670.1609219482544	4306.753888635685	-487.2360236820506	-663.85187404306	3685.661072868655	-513.9628901824171	-911.816287337591	3541.1411455891766	-438.0754842969117	-775.9803237230425	3570.1326209764325	-416.11730670123086	-561.909859094835	3687.2752820904543	-680.8425108025282	-283.99997682019506	3651.4926012793417	-683.9544793086238	-24.695350981047323	3639.889458282735	-623.6003072646934	86.58316120217043	3742.435762880535	-562.5652891647806	112.00993889047456	3692.602747478863	-556.1305960573607	97.50346826477296	3626.515760107039	-579.6976008671982	-609.9560758878728	3756.7969514694314	-357.8036647076914	-392.0224712164489	3982.009729168175	-346.5640216173676	-134.20218348121313	3940.0438308216458	-224.71887719771644	-2.6865099426258436	3828.560599400752	-219.84524295199094	17.60852093307033	3889.494467683886	-203.39974454332742	-2.054715700041685	3970.997496818847	-207.2033069690639
